<svg xmlns="http://www.w3.org/2000/svg" xmlns:xlink="http://www.w3.org/1999/xlink" width="500" zoomAndPan="magnify" viewBox="0 0 375 374.999991" height="500" preserveAspectRatio="xMidYMid meet" version="1.0"><defs><g/><clipPath id="e6df5e7fce"><path d="M 76.777344 73 L 298.027344 73 L 298.027344 302 L 76.777344 302 Z M 76.777344 73 " clip-rule="nonzero"/></clipPath><clipPath id="0855cf7ee9"><path d="M 146 99 L 229 99 L 229 170.382812 L 146 170.382812 Z M 146 99 " clip-rule="nonzero"/></clipPath><clipPath id="b98e9e7639"><path d="M 178.554688 117.28125 L 204.726562 117.28125 L 204.726562 143.53125 L 178.554688 143.53125 Z M 178.554688 117.28125 " clip-rule="nonzero"/></clipPath><clipPath id="7e1c9c43d5"><path d="M 170.253906 128.75 L 184.859375 128.75 L 184.859375 143.53125 L 170.253906 143.53125 Z M 170.253906 128.75 " clip-rule="nonzero"/></clipPath><clipPath id="9ed7fa230b"><path d="M 130.09375 236.460938 L 251.59375 236.460938 L 251.59375 285.960938 L 130.09375 285.960938 Z M 130.09375 236.460938 " clip-rule="nonzero"/></clipPath></defs><g clip-path="url(#e6df5e7fce)"><path fill="#0074e4" d="M 159.589844 76.703125 C 161.382812 76.253906 163.183594 75.847656 164.996094 75.484375 C 166.808594 75.121094 168.628906 74.804688 170.453125 74.53125 C 172.28125 74.257812 174.113281 74.027344 175.953125 73.84375 C 177.792969 73.65625 179.632812 73.519531 181.480469 73.421875 C 183.324219 73.328125 185.171875 73.277344 187.019531 73.273438 C 188.867188 73.265625 190.714844 73.308594 192.558594 73.390625 C 194.40625 73.476562 196.246094 73.605469 198.085938 73.78125 C 199.925781 73.953125 201.761719 74.171875 203.589844 74.4375 C 205.417969 74.699219 207.238281 75.007812 209.054688 75.359375 C 210.867188 75.710938 212.671875 76.105469 214.46875 76.546875 C 216.261719 76.984375 218.046875 77.46875 219.816406 77.996094 C 221.585938 78.519531 223.34375 79.089844 225.089844 79.703125 C 226.832031 80.3125 228.558594 80.96875 230.273438 81.664062 C 231.984375 82.359375 233.679688 83.097656 235.355469 83.875 C 237.03125 84.652344 238.6875 85.472656 240.324219 86.332031 C 241.960938 87.191406 243.574219 88.089844 245.167969 89.023438 C 246.761719 89.960938 248.328125 90.9375 249.875 91.953125 C 251.421875 92.964844 252.941406 94.015625 254.433594 95.105469 C 255.929688 96.191406 257.398438 97.316406 258.835938 98.472656 C 260.277344 99.632812 261.6875 100.824219 263.070312 102.054688 C 264.453125 103.28125 265.804688 104.542969 267.125 105.835938 C 268.445312 107.128906 269.734375 108.453125 270.988281 109.808594 C 272.246094 111.164062 273.46875 112.550781 274.65625 113.964844 C 275.847656 115.382812 277 116.824219 278.121094 118.296875 C 279.238281 119.769531 280.324219 121.265625 281.371094 122.789062 C 282.414062 124.3125 283.425781 125.863281 284.394531 127.4375 C 285.367188 129.007812 286.300781 130.605469 287.191406 132.222656 C 288.085938 133.84375 288.941406 135.480469 289.753906 137.140625 C 290.570312 138.800781 291.34375 140.480469 292.074219 142.179688 C 292.808594 143.878906 293.5 145.59375 294.148438 147.324219 C 294.796875 149.054688 295.40625 150.800781 295.96875 152.5625 C 296.535156 154.324219 297.054688 156.097656 297.535156 157.882812 C 297.710938 158.542969 297.886719 159.214844 298.054688 159.898438 L 296.308594 160.507812 C 296.132812 159.789062 295.949219 159.074219 295.757812 158.355469 C 295.28125 156.585938 294.765625 154.828125 294.207031 153.082031 C 293.644531 151.339844 293.042969 149.609375 292.398438 147.890625 C 291.753906 146.175781 291.070312 144.476562 290.339844 142.796875 C 289.613281 141.113281 288.84375 139.449219 288.035156 137.804688 C 287.226562 136.160156 286.378906 134.539062 285.488281 132.933594 C 284.601562 131.332031 283.675781 129.75 282.707031 128.195312 C 281.742188 126.636719 280.738281 125.105469 279.699219 123.59375 C 278.660156 122.085938 277.582031 120.605469 276.46875 119.148438 C 275.355469 117.695312 274.207031 116.265625 273.023438 114.867188 C 271.839844 113.46875 270.625 112.097656 269.375 110.757812 C 268.125 109.421875 266.84375 108.113281 265.527344 106.835938 C 264.214844 105.558594 262.871094 104.316406 261.496094 103.105469 C 260.121094 101.894531 258.714844 100.714844 257.285156 99.574219 C 255.851562 98.433594 254.390625 97.324219 252.90625 96.253906 C 251.417969 95.183594 249.90625 94.152344 248.371094 93.15625 C 246.832031 92.160156 245.273438 91.199219 243.6875 90.28125 C 242.105469 89.359375 240.5 88.480469 238.871094 87.636719 C 237.242188 86.796875 235.597656 85.996094 233.929688 85.234375 C 232.265625 84.476562 230.582031 83.753906 228.878906 83.078125 C 227.179688 82.398438 225.460938 81.765625 223.730469 81.167969 C 221.996094 80.574219 220.25 80.023438 218.492188 79.515625 C 216.730469 79.007812 214.960938 78.542969 213.179688 78.121094 C 211.394531 77.699219 209.605469 77.324219 207.804688 76.988281 C 206.003906 76.65625 204.195312 76.367188 202.378906 76.121094 C 200.566406 75.875 198.746094 75.675781 196.921875 75.519531 C 195.09375 75.363281 193.269531 75.25 191.4375 75.183594 C 189.609375 75.117188 187.777344 75.097656 185.945312 75.121094 C 184.113281 75.144531 182.285156 75.210938 180.457031 75.324219 C 178.628906 75.4375 176.804688 75.59375 174.984375 75.796875 C 173.164062 76 171.351562 76.246094 169.542969 76.539062 C 167.734375 76.828125 165.933594 77.164062 164.144531 77.542969 C 162.351562 77.925781 160.570312 78.347656 158.800781 78.8125 C 159.074219 78.117188 159.34375 77.421875 159.589844 76.707031 Z M 78.523438 214.738281 C 78.671875 215.324219 78.816406 215.910156 78.976562 216.496094 C 79.453125 218.273438 79.96875 220.035156 80.53125 221.785156 C 81.09375 223.535156 81.699219 225.269531 82.34375 226.988281 C 82.992188 228.707031 83.679688 230.410156 84.410156 232.097656 C 85.140625 233.78125 85.910156 235.449219 86.722656 237.097656 C 87.535156 238.746094 88.386719 240.375 89.277344 241.980469 C 90.171875 243.585938 91.101562 245.167969 92.070312 246.730469 C 93.039062 248.289062 94.046875 249.828125 95.089844 251.335938 C 96.136719 252.847656 97.21875 254.332031 98.335938 255.789062 C 99.453125 257.25 100.605469 258.679688 101.792969 260.078125 C 102.980469 261.480469 104.199219 262.851562 105.457031 264.195312 C 106.710938 265.535156 107.996094 266.84375 109.316406 268.125 C 110.636719 269.402344 111.984375 270.648438 113.367188 271.859375 C 114.746094 273.070312 116.15625 274.246094 117.59375 275.390625 C 119.03125 276.53125 120.496094 277.640625 121.988281 278.710938 C 123.480469 279.78125 124.996094 280.8125 126.539062 281.808594 C 128.082031 282.804688 129.648438 283.765625 131.238281 284.683594 C 132.828125 285.601562 134.441406 286.480469 136.074219 287.320312 C 137.707031 288.164062 139.359375 288.960938 141.03125 289.71875 C 142.703125 290.480469 144.390625 291.195312 146.101562 291.871094 C 147.808594 292.546875 149.53125 293.183594 151.269531 293.773438 C 153.007812 294.363281 154.757812 294.914062 156.523438 295.417969 C 158.289062 295.921875 160.066406 296.382812 161.851562 296.800781 C 163.640625 297.21875 165.4375 297.59375 167.246094 297.921875 C 169.050781 298.253906 170.863281 298.539062 172.683594 298.777344 C 174.503906 299.019531 176.328125 299.214844 178.160156 299.367188 C 179.988281 299.515625 181.820312 299.621094 183.65625 299.683594 C 185.492188 299.742188 187.328125 299.757812 189.164062 299.730469 C 190.996094 299.699219 192.832031 299.625 194.664062 299.507812 C 196.496094 299.386719 198.324219 299.222656 200.148438 299.015625 C 201.972656 298.804688 203.789062 298.550781 205.601562 298.253906 C 207.414062 297.953125 209.214844 297.613281 211.011719 297.222656 C 212.804688 296.835938 214.589844 296.40625 216.363281 295.929688 C 216.078125 296.628906 215.800781 297.332031 215.542969 298.042969 C 213.75 298.5 211.945312 298.914062 210.128906 299.28125 C 208.316406 299.652344 206.492188 299.976562 204.660156 300.257812 C 202.832031 300.539062 200.996094 300.773438 199.152344 300.964844 C 197.308594 301.15625 195.464844 301.304688 193.613281 301.40625 C 191.765625 301.507812 189.914062 301.5625 188.0625 301.574219 C 186.210938 301.585938 184.359375 301.550781 182.511719 301.46875 C 180.660156 301.390625 178.8125 301.265625 176.96875 301.097656 C 175.125 300.929688 173.285156 300.714844 171.449219 300.457031 C 169.617188 300.195312 167.789062 299.894531 165.972656 299.546875 C 164.152344 299.199219 162.34375 298.804688 160.542969 298.371094 C 158.742188 297.933594 156.953125 297.453125 155.179688 296.929688 C 153.402344 296.40625 151.636719 295.839844 149.890625 295.230469 C 148.140625 294.621094 146.40625 293.96875 144.691406 293.277344 C 142.972656 292.582031 141.273438 291.847656 139.589844 291.070312 C 137.910156 290.292969 136.246094 289.476562 134.605469 288.621094 C 132.964844 287.761719 131.34375 286.863281 129.746094 285.929688 C 128.148438 284.992188 126.574219 284.015625 125.023438 283.003906 C 123.472656 281.992188 121.945312 280.941406 120.445312 279.851562 C 118.945312 278.765625 117.472656 277.640625 116.03125 276.480469 C 114.585938 275.324219 113.167969 274.128906 111.78125 272.898438 C 110.394531 271.671875 109.039062 270.410156 107.714844 269.117188 C 106.386719 267.820312 105.09375 266.496094 103.832031 265.136719 C 102.570312 263.78125 101.34375 262.390625 100.152344 260.976562 C 98.957031 259.558594 97.800781 258.113281 96.675781 256.636719 C 95.554688 255.164062 94.464844 253.664062 93.417969 252.136719 C 92.367188 250.609375 91.355469 249.058594 90.378906 247.480469 C 89.40625 245.90625 88.46875 244.308594 87.570312 242.683594 C 86.675781 241.0625 85.820312 239.421875 85 237.757812 C 84.183594 236.09375 83.410156 234.410156 82.671875 232.710938 C 81.9375 231.007812 81.246094 229.289062 80.59375 227.554688 C 79.941406 225.820312 79.332031 224.070312 78.765625 222.304688 C 78.203125 220.539062 77.679688 218.761719 77.199219 216.972656 C 77.054688 216.433594 76.917969 215.890625 76.777344 215.351562 Z M 78.523438 214.738281 " fill-opacity="1" fill-rule="evenodd"/></g><g clip-path="url(#0855cf7ee9)"><path fill="#00b894" d="M 187.632812 170.367188 C 187.085938 170.363281 186.730469 170.054688 186.648438 169.980469 L 155.027344 138.359375 C 147.5 131.546875 144.910156 121.167969 148.417969 112.546875 C 152.507812 102.503906 162.828125 99.882812 163.523438 99.722656 C 172.390625 97.652344 181.867188 101.507812 187.644531 109.371094 C 193.421875 101.507812 202.902344 97.652344 211.765625 99.722656 C 212.210938 99.824219 222.734375 102.386719 226.871094 112.546875 C 230.40625 121.234375 227.75 131.601562 220.261719 138.359375 L 188.636719 169.980469 C 188.558594 170.050781 188.195312 170.371094 187.632812 170.367188 Z M 164.082031 102.125 C 163.5 102.261719 154.332031 104.570312 150.707031 113.480469 C 147.558594 121.214844 149.96875 130.484375 156.703125 136.542969 L 156.75 136.589844 L 187.644531 167.480469 L 218.5625 136.566406 L 218.585938 136.542969 C 225.320312 130.484375 227.730469 121.214844 224.582031 113.480469 C 220.921875 104.488281 211.601562 102.21875 211.207031 102.125 C 202.800781 100.164062 193.753906 104.222656 188.6875 112.222656 L 187.644531 113.867188 L 186.601562 112.222656 C 181.535156 104.175781 172.410156 100.175781 164.082031 102.125 Z M 164.082031 102.125 " fill-opacity="1" fill-rule="nonzero"/></g><g clip-path="url(#b98e9e7639)"><path fill="#0074e4" d="M 204.730469 120.371094 L 181.746094 143.539062 L 178.683594 140.449219 L 201.664062 117.28125 L 204.730469 120.371094 " fill-opacity="1" fill-rule="nonzero"/></g><g clip-path="url(#7e1c9c43d5)"><path fill="#0074e4" d="M 181.746094 143.539062 L 170.253906 131.953125 L 173.320312 128.867188 L 184.8125 140.449219 L 181.746094 143.539062 " fill-opacity="1" fill-rule="nonzero"/></g><g clip-path="url(#9ed7fa230b)"><path fill="#0074e4" d="M 251.609375 264.589844 C 251.304688 264.570312 251.003906 264.539062 250.703125 264.539062 C 241.929688 264.527344 233.15625 264.523438 224.382812 264.519531 C 222.304688 264.515625 220.222656 264.511719 218.144531 264.523438 C 215.179688 264.539062 212.21875 264.585938 209.257812 264.589844 C 206.535156 264.589844 203.808594 264.550781 201.085938 264.539062 C 199.941406 264.53125 198.800781 264.554688 197.65625 264.554688 C 195.472656 264.546875 193.292969 264.53125 191.113281 264.53125 C 189.933594 264.53125 188.761719 264.5625 187.582031 264.5625 C 185.402344 264.554688 183.21875 264.523438 181.039062 264.519531 C 179.195312 264.511719 177.351562 264.511719 175.503906 264.523438 C 174.828125 264.523438 174.675781 264.464844 174.449219 263.855469 C 174.207031 263.203125 174.003906 262.53125 173.710938 261.640625 C 173.535156 262.574219 173.394531 263.265625 173.277344 263.964844 C 172.640625 267.769531 172.011719 271.574219 171.378906 275.382812 C 171.238281 276.214844 171.039062 276.460938 170.535156 276.421875 C 170.082031 276.382812 169.925781 276.152344 169.835938 275.351562 C 169.5 272.285156 169.167969 269.21875 168.835938 266.152344 C 168.542969 263.496094 168.253906 260.839844 167.960938 258.183594 C 167.65625 255.421875 167.339844 252.660156 167.035156 249.898438 C 166.863281 248.351562 166.695312 246.800781 166.410156 245.246094 C 166.332031 245.871094 166.230469 246.496094 166.183594 247.121094 C 166.019531 249.320312 165.886719 251.523438 165.726562 253.71875 C 165.628906 255.039062 165.492188 256.355469 165.394531 257.671875 C 165.230469 259.933594 165.085938 262.195312 164.921875 264.457031 C 164.761719 266.652344 164.574219 268.847656 164.410156 271.039062 C 164.246094 273.203125 164.09375 275.371094 163.929688 277.535156 C 163.734375 280.035156 163.535156 282.539062 163.34375 285.039062 C 163.316406 285.351562 163.308594 285.65625 162.945312 285.785156 C 162.484375 285.953125 162.082031 285.738281 161.980469 285.203125 C 161.867188 284.605469 161.8125 283.996094 161.742188 283.390625 C 161.3125 279.753906 160.902344 276.117188 160.453125 272.484375 C 160.160156 270.097656 159.808594 267.71875 159.496094 265.335938 C 159.40625 264.628906 159.378906 263.917969 159.296875 263.214844 C 159.246094 262.78125 159.140625 262.355469 158.914062 261.921875 C 158.679688 262.777344 158.453125 263.636719 158.203125 264.488281 C 158.042969 265.042969 157.839844 265.582031 157.675781 266.128906 C 157.574219 266.46875 157.378906 266.640625 157.027344 266.65625 C 156.613281 266.671875 156.390625 266.441406 156.296875 266.085938 C 156.0625 265.167969 155.851562 264.242188 155.628906 263.324219 C 155.203125 261.546875 154.78125 259.765625 154.351562 257.988281 C 154.308594 257.796875 154.214844 257.617188 154.074219 257.230469 C 153.6875 259.355469 153.335938 261.277344 152.992188 263.199219 C 152.488281 266 151.992188 268.800781 151.492188 271.601562 C 151.480469 271.667969 151.453125 271.734375 151.445312 271.800781 C 151.382812 272.226562 151.261719 272.632812 150.75 272.644531 C 150.269531 272.660156 150.082031 272.3125 149.914062 271.902344 C 149.066406 269.835938 148.191406 267.78125 147.324219 265.71875 C 147.167969 265.347656 146.996094 264.984375 146.824219 264.601562 C 146.519531 264.582031 146.257812 264.546875 145.992188 264.546875 C 140.894531 264.546875 135.800781 264.546875 130.707031 264.550781 C 130.503906 264.550781 130.304688 264.582031 130.101562 264.597656 C 130.101562 264.191406 130.101562 263.785156 130.101562 263.375 C 130.605469 263.390625 131.113281 263.410156 131.617188 263.410156 C 136.613281 263.410156 141.605469 263.410156 146.597656 263.410156 C 147.773438 263.410156 147.773438 263.417969 148.21875 264.527344 C 148.894531 266.21875 149.574219 267.914062 150.425781 269.621094 C 150.53125 269.15625 150.652344 268.699219 150.738281 268.230469 C 151.539062 263.765625 152.335938 259.296875 153.136719 254.828125 C 153.21875 254.363281 153.300781 253.894531 153.390625 253.429688 C 153.453125 253.117188 153.667969 252.984375 153.964844 252.957031 C 154.304688 252.929688 154.566406 253.042969 154.695312 253.375 C 154.753906 253.53125 154.785156 253.699219 154.820312 253.863281 C 155.496094 256.695312 156.171875 259.527344 156.847656 262.363281 C 156.902344 262.585938 156.996094 262.800781 157.128906 263.191406 C 157.332031 262.523438 157.488281 262.019531 157.636719 261.515625 C 157.96875 260.34375 158.308594 259.179688 158.632812 258.007812 C 158.753906 257.570312 159.03125 257.410156 159.460938 257.449219 C 159.882812 257.488281 160.011719 257.777344 160.054688 258.148438 C 160.261719 259.921875 160.472656 261.699219 160.683594 263.472656 C 160.847656 264.847656 161.019531 266.222656 161.183594 267.597656 C 161.492188 270.15625 161.792969 272.714844 162.101562 275.269531 C 162.191406 276.003906 162.289062 276.734375 162.484375 277.484375 C 162.542969 277.265625 162.632812 277.054688 162.648438 276.835938 C 162.808594 274.773438 162.957031 272.710938 163.101562 270.648438 C 163.355469 267.132812 163.597656 263.613281 163.855469 260.097656 C 164.078125 257.09375 164.320312 254.089844 164.554688 251.082031 C 164.800781 247.972656 165.054688 244.863281 165.296875 241.753906 C 165.390625 240.539062 165.460938 239.316406 165.542969 238.101562 C 165.5625 237.796875 165.570312 237.488281 165.605469 237.1875 C 165.648438 236.773438 165.828125 236.476562 166.296875 236.472656 C 166.761719 236.472656 166.9375 236.730469 166.984375 237.171875 C 167.074219 238.050781 167.214844 238.917969 167.304688 239.792969 C 167.609375 242.59375 167.890625 245.390625 168.199219 248.1875 C 168.558594 251.421875 168.949219 254.652344 169.3125 257.886719 C 169.554688 260.074219 169.769531 262.269531 170.011719 264.457031 C 170.222656 266.359375 170.453125 268.261719 170.691406 270.316406 C 170.824219 270.066406 170.917969 269.957031 170.933594 269.839844 C 171.164062 268.367188 171.367188 266.894531 171.613281 265.429688 C 171.894531 263.757812 172.214844 262.09375 172.519531 260.429688 C 172.605469 259.960938 172.6875 259.496094 172.773438 259.03125 C 172.832031 258.695312 173.023438 258.402344 173.347656 258.421875 C 173.601562 258.433594 173.902344 258.617188 174.082031 258.820312 C 174.273438 259.035156 174.375 259.347656 174.472656 259.628906 C 174.894531 260.839844 175.304688 262.058594 175.746094 263.351562 C 176.011719 263.371094 176.304688 263.414062 176.601562 263.414062 C 179.628906 263.402344 182.65625 263.375 185.683594 263.375 C 189.628906 263.375 193.570312 263.402344 197.515625 263.410156 C 201.558594 263.417969 205.597656 263.417969 209.644531 263.417969 C 212.503906 263.417969 215.363281 263.417969 218.226562 263.417969 C 229.085938 263.417969 239.941406 263.417969 250.800781 263.417969 C 251.070312 263.417969 251.335938 263.394531 251.609375 263.382812 C 251.609375 263.773438 251.609375 264.183594 251.609375 264.589844 Z M 251.609375 264.589844 " fill-opacity="1" fill-rule="nonzero"/></g><g fill="#00203d" fill-opacity="1"><g transform="translate(57.975127, 205.235777)"><g><path d="M 21.40625 -2.015625 C 20.789062 -1.503906 19.8125 -0.992188 18.46875 -0.484375 C 17.125 0.015625 15.65625 0.265625 14.0625 0.265625 C 11.53125 0.265625 9.328125 -0.285156 7.453125 -1.390625 C 5.578125 -2.492188 4.140625 -3.976562 3.140625 -5.84375 C 2.148438 -7.707031 1.65625 -9.753906 1.65625 -11.984375 C 1.65625 -14.429688 2.148438 -16.613281 3.140625 -18.53125 C 4.140625 -20.445312 5.53125 -21.941406 7.3125 -23.015625 C 9.101562 -24.085938 11.164062 -24.625 13.5 -24.625 C 14.976562 -24.625 16.34375 -24.425781 17.59375 -24.03125 C 18.851562 -23.632812 19.960938 -23.132812 20.921875 -22.53125 L 19.03125 -18 C 17.289062 -19.320312 15.503906 -19.984375 13.671875 -19.984375 C 12.429688 -19.984375 11.269531 -19.640625 10.1875 -18.953125 C 9.113281 -18.273438 8.253906 -17.34375 7.609375 -16.15625 C 6.972656 -14.976562 6.65625 -13.675781 6.65625 -12.25 C 6.65625 -10.675781 6.953125 -9.300781 7.546875 -8.125 C 8.140625 -6.945312 8.988281 -6.023438 10.09375 -5.359375 C 11.195312 -4.703125 12.488281 -4.375 13.96875 -4.375 C 15.15625 -4.375 16.222656 -4.566406 17.171875 -4.953125 C 18.117188 -5.335938 18.867188 -5.796875 19.421875 -6.328125 Z M 21.40625 -2.015625 "/></g></g></g><g fill="#00203d" fill-opacity="1"><g transform="translate(107.516355, 205.235777)"><g><path d="M 15.1875 -4.765625 L 7.109375 -4.765625 L 5.125 0 L 0.390625 0 L 11.390625 -25.3125 L 11.65625 -25.3125 L 22.640625 0 L 17.078125 0 Z M 13.59375 -8.796875 L 11.25 -14.734375 L 8.796875 -8.796875 Z M 13.59375 -8.796875 "/></g></g></g><g fill="#00203d" fill-opacity="1"><g transform="translate(157.024491, 205.235777)"><g><path d="M 16.28125 0 L 11.15625 -7.75 L 7.9375 -7.75 L 7.9375 0 L 3.140625 0 L 3.140625 -24.359375 L 10.53125 -24.359375 C 13.550781 -24.359375 15.894531 -23.625 17.5625 -22.15625 C 19.226562 -20.6875 20.0625 -18.6875 20.0625 -16.15625 C 20.0625 -14.65625 19.742188 -13.25 19.109375 -11.9375 C 18.484375 -10.625 17.519531 -9.59375 16.21875 -8.84375 L 21.875 0 Z M 7.9375 -12.375 L 11.34375 -12.375 C 12.644531 -12.375 13.59375 -12.753906 14.1875 -13.515625 C 14.789062 -14.273438 15.09375 -15.097656 15.09375 -15.984375 C 15.09375 -16.867188 14.835938 -17.710938 14.328125 -18.515625 C 13.816406 -19.316406 12.835938 -19.71875 11.390625 -19.71875 L 7.9375 -19.71875 Z M 7.9375 -12.375 "/></g></g></g><g fill="#00203d" fill-opacity="1"><g transform="translate(206.201676, 205.235777)"><g><path d="M 3.140625 -24.359375 L 10.421875 -24.359375 C 13.535156 -24.359375 16.09375 -23.753906 18.09375 -22.546875 C 20.101562 -21.347656 21.566406 -19.796875 22.484375 -17.890625 C 23.398438 -15.984375 23.859375 -13.9375 23.859375 -11.75 C 23.859375 -9.40625 23.304688 -7.335938 22.203125 -5.546875 C 21.097656 -3.765625 19.613281 -2.394531 17.75 -1.4375 C 15.882812 -0.476562 13.835938 0 11.609375 0 L 3.140625 0 Z M 10.78125 -4.640625 C 13.28125 -4.640625 15.253906 -5.273438 16.703125 -6.546875 C 18.160156 -7.828125 18.890625 -9.671875 18.890625 -12.078125 C 18.890625 -14.015625 18.488281 -15.554688 17.6875 -16.703125 C 16.882812 -17.859375 15.945312 -18.65625 14.875 -19.09375 C 13.800781 -19.53125 12.789062 -19.75 11.84375 -19.75 L 7.9375 -19.75 L 7.9375 -4.640625 Z M 10.78125 -4.640625 "/></g></g></g><g fill="#00203d" fill-opacity="1"><g transform="translate(258.191822, 205.235777)"><g><path d="M 7.9375 -24.359375 L 7.9375 0 L 3.140625 0 L 3.140625 -24.359375 Z M 7.9375 -24.359375 "/></g></g></g><g fill="#00203d" fill-opacity="1"><g transform="translate(295.753112, 205.235777)"><g><path d="M 1.65625 -12.140625 C 1.65625 -14.347656 2.210938 -16.410156 3.328125 -18.328125 C 4.441406 -20.253906 5.953125 -21.785156 7.859375 -22.921875 C 9.765625 -24.054688 11.832031 -24.625 14.0625 -24.625 C 16.289062 -24.625 18.359375 -24.054688 20.265625 -22.921875 C 22.171875 -21.785156 23.691406 -20.253906 24.828125 -18.328125 C 25.972656 -16.410156 26.546875 -14.347656 26.546875 -12.140625 C 26.546875 -9.890625 25.972656 -7.816406 24.828125 -5.921875 C 23.691406 -4.023438 22.171875 -2.519531 20.265625 -1.40625 C 18.359375 -0.289062 16.289062 0.265625 14.0625 0.265625 C 11.8125 0.265625 9.738281 -0.289062 7.84375 -1.40625 C 5.945312 -2.519531 4.441406 -4.023438 3.328125 -5.921875 C 2.210938 -7.816406 1.65625 -9.890625 1.65625 -12.140625 Z M 6.625 -12.140625 C 6.625 -10.734375 6.957031 -9.429688 7.625 -8.234375 C 8.300781 -7.046875 9.21875 -6.101562 10.375 -5.40625 C 11.53125 -4.71875 12.816406 -4.375 14.234375 -4.375 C 15.597656 -4.375 16.84375 -4.71875 17.96875 -5.40625 C 19.09375 -6.101562 19.972656 -7.039062 20.609375 -8.21875 C 21.253906 -9.40625 21.578125 -10.710938 21.578125 -12.140625 C 21.578125 -13.597656 21.242188 -14.921875 20.578125 -16.109375 C 19.921875 -17.304688 19.023438 -18.25 17.890625 -18.9375 C 16.753906 -19.632812 15.488281 -19.984375 14.09375 -19.984375 C 12.707031 -19.984375 11.445312 -19.632812 10.3125 -18.9375 C 9.175781 -18.25 8.273438 -17.304688 7.609375 -16.109375 C 6.953125 -14.921875 6.625 -13.597656 6.625 -12.140625 Z M 6.625 -12.140625 "/></g></g></g><g fill="#00b894" fill-opacity="1"><g transform="translate(151.535686, 231.121406)"><g><path d="M 8.984375 -0.796875 C 8.679688 -0.585938 8.265625 -0.382812 7.734375 -0.1875 C 7.210938 0.0078125 6.632812 0.109375 6 0.109375 C 4.945312 0.109375 4.023438 -0.117188 3.234375 -0.578125 C 2.441406 -1.046875 1.832031 -1.671875 1.40625 -2.453125 C 0.976562 -3.234375 0.765625 -4.085938 0.765625 -5.015625 C 0.765625 -6.035156 0.976562 -6.945312 1.40625 -7.75 C 1.832031 -8.5625 2.425781 -9.191406 3.1875 -9.640625 C 3.945312 -10.097656 4.816406 -10.328125 5.796875 -10.328125 C 6.390625 -10.328125 6.941406 -10.242188 7.453125 -10.078125 C 7.960938 -9.921875 8.414062 -9.722656 8.8125 -9.484375 L 8.171875 -7.953125 C 7.410156 -8.484375 6.632812 -8.75 5.84375 -8.75 C 5.25 -8.75 4.691406 -8.585938 4.171875 -8.265625 C 3.648438 -7.941406 3.234375 -7.503906 2.921875 -6.953125 C 2.617188 -6.398438 2.46875 -5.789062 2.46875 -5.125 C 2.46875 -4.414062 2.609375 -3.785156 2.890625 -3.234375 C 3.179688 -2.679688 3.585938 -2.242188 4.109375 -1.921875 C 4.640625 -1.609375 5.253906 -1.453125 5.953125 -1.453125 C 6.441406 -1.453125 6.882812 -1.523438 7.28125 -1.671875 C 7.6875 -1.828125 8.023438 -2.023438 8.296875 -2.265625 Z M 8.984375 -0.796875 "/></g></g></g><g fill="#00b894" fill-opacity="1"><g transform="translate(166.889001, 231.121406)"><g><path d="M 9.703125 0 L 8.0625 0 L 8.0625 -4.34375 L 3.046875 -4.34375 L 3.046875 0 L 1.40625 0 L 1.40625 -10.21875 L 3.046875 -10.21875 L 3.046875 -5.90625 L 8.0625 -5.90625 L 8.0625 -10.21875 L 9.703125 -10.21875 Z M 9.703125 0 "/></g></g></g><g fill="#00b894" fill-opacity="1"><g transform="translate(183.601828, 231.121406)"><g><path d="M 8.1875 -10.21875 L 8.1875 -8.640625 L 3.046875 -8.640625 L 3.046875 -5.921875 L 7.625 -5.921875 L 7.625 -4.34375 L 3.046875 -4.34375 L 3.046875 -1.578125 L 8.375 -1.578125 L 8.375 0 L 1.40625 0 L 1.40625 -10.21875 Z M 8.1875 -10.21875 "/></g></g></g><g fill="#00b894" fill-opacity="1"><g transform="translate(198.436566, 231.121406)"><g><path d="M 8.984375 -0.796875 C 8.679688 -0.585938 8.265625 -0.382812 7.734375 -0.1875 C 7.210938 0.0078125 6.632812 0.109375 6 0.109375 C 4.945312 0.109375 4.023438 -0.117188 3.234375 -0.578125 C 2.441406 -1.046875 1.832031 -1.671875 1.40625 -2.453125 C 0.976562 -3.234375 0.765625 -4.085938 0.765625 -5.015625 C 0.765625 -6.035156 0.976562 -6.945312 1.40625 -7.75 C 1.832031 -8.5625 2.425781 -9.191406 3.1875 -9.640625 C 3.945312 -10.097656 4.816406 -10.328125 5.796875 -10.328125 C 6.390625 -10.328125 6.941406 -10.242188 7.453125 -10.078125 C 7.960938 -9.921875 8.414062 -9.722656 8.8125 -9.484375 L 8.171875 -7.953125 C 7.410156 -8.484375 6.632812 -8.75 5.84375 -8.75 C 5.25 -8.75 4.691406 -8.585938 4.171875 -8.265625 C 3.648438 -7.941406 3.234375 -7.503906 2.921875 -6.953125 C 2.617188 -6.398438 2.46875 -5.789062 2.46875 -5.125 C 2.46875 -4.414062 2.609375 -3.785156 2.890625 -3.234375 C 3.179688 -2.679688 3.585938 -2.242188 4.109375 -1.921875 C 4.640625 -1.609375 5.253906 -1.453125 5.953125 -1.453125 C 6.441406 -1.453125 6.882812 -1.523438 7.28125 -1.671875 C 7.6875 -1.828125 8.023438 -2.023438 8.296875 -2.265625 Z M 8.984375 -0.796875 "/></g></g></g><g fill="#00b894" fill-opacity="1"><g transform="translate(213.789881, 231.121406)"><g><path d="M 3.015625 -5.78125 L 3.234375 -6.109375 L 7.078125 -10.21875 L 9.1875 -10.21875 L 4.96875 -5.75 L 9.34375 0 L 7.265625 0 L 3.78125 -4.71875 L 3.0625 -4.015625 L 3.0625 0 L 1.40625 0 L 1.40625 -10.21875 L 3.0625 -10.21875 L 3.0625 -6.296875 Z M 3.015625 -5.78125 "/></g></g></g></svg>